<mxfile host="app.diagrams.net" modified="2024-04-30T18:47:36.405Z" agent="Mozilla/5.0 (Windows NT 10.0; Win64; x64) AppleWebKit/537.36 (KHTML, like Gecko) Chrome/124.0.0.0 Safari/537.36" etag="mHAXHlnw0I1v5Rm8uOv5" version="24.3.1" type="device">
  <diagram id="R2lEEEUBdFMjLlhIrx00" name="Page-1">
    <mxGraphModel dx="1229" dy="1053" grid="1" gridSize="10" guides="1" tooltips="1" connect="1" arrows="1" fold="1" page="1" pageScale="1" pageWidth="850" pageHeight="1100" math="0" shadow="0" extFonts="Permanent Marker^https://fonts.googleapis.com/css?family=Permanent+Marker">
      <root>
        <mxCell id="0" />
        <mxCell id="1" parent="0" />
        <mxCell id="OPNEqIHEBPvRZVrt1SkX-25" value="" style="group" vertex="1" connectable="0" parent="1">
          <mxGeometry x="100" y="50" width="650" height="550" as="geometry" />
        </mxCell>
        <mxCell id="OPNEqIHEBPvRZVrt1SkX-4" value="" style="whiteSpace=wrap;html=1;align=left;" vertex="1" parent="OPNEqIHEBPvRZVrt1SkX-25">
          <mxGeometry width="433.3333333333333" height="397.2222222222222" as="geometry" />
        </mxCell>
        <mxCell id="OPNEqIHEBPvRZVrt1SkX-2" value="Smart Home System" style="text;html=1;align=center;verticalAlign=middle;whiteSpace=wrap;rounded=0;" vertex="1" parent="OPNEqIHEBPvRZVrt1SkX-25">
          <mxGeometry x="25.49019607843137" y="15.277777777777777" width="165.68627450980392" height="45.83333333333333" as="geometry" />
        </mxCell>
        <mxCell id="OPNEqIHEBPvRZVrt1SkX-14" style="edgeStyle=orthogonalEdgeStyle;rounded=0;orthogonalLoop=1;jettySize=auto;html=1;exitX=0.5;exitY=1;exitDx=0;exitDy=0;" edge="1" parent="OPNEqIHEBPvRZVrt1SkX-25" source="OPNEqIHEBPvRZVrt1SkX-7" target="OPNEqIHEBPvRZVrt1SkX-11">
          <mxGeometry relative="1" as="geometry" />
        </mxCell>
        <mxCell id="OPNEqIHEBPvRZVrt1SkX-23" value="simmulates values" style="edgeLabel;html=1;align=center;verticalAlign=middle;resizable=0;points=[];" vertex="1" connectable="0" parent="OPNEqIHEBPvRZVrt1SkX-14">
          <mxGeometry x="-0.1" y="2" relative="1" as="geometry">
            <mxPoint as="offset" />
          </mxGeometry>
        </mxCell>
        <mxCell id="OPNEqIHEBPvRZVrt1SkX-7" value="Dummy-Sensoren" style="rounded=0;whiteSpace=wrap;html=1;" vertex="1" parent="OPNEqIHEBPvRZVrt1SkX-25">
          <mxGeometry x="38.23529411764706" y="61.11111111111111" width="152.94117647058823" height="91.66666666666666" as="geometry" />
        </mxCell>
        <mxCell id="OPNEqIHEBPvRZVrt1SkX-15" style="edgeStyle=orthogonalEdgeStyle;rounded=0;orthogonalLoop=1;jettySize=auto;html=1;exitX=0.5;exitY=1;exitDx=0;exitDy=0;" edge="1" parent="OPNEqIHEBPvRZVrt1SkX-25" source="OPNEqIHEBPvRZVrt1SkX-8" target="OPNEqIHEBPvRZVrt1SkX-10">
          <mxGeometry relative="1" as="geometry" />
        </mxCell>
        <mxCell id="OPNEqIHEBPvRZVrt1SkX-24" value="simmulates actions" style="edgeLabel;html=1;align=center;verticalAlign=middle;resizable=0;points=[];" vertex="1" connectable="0" parent="OPNEqIHEBPvRZVrt1SkX-15">
          <mxGeometry x="-0.1759" relative="1" as="geometry">
            <mxPoint as="offset" />
          </mxGeometry>
        </mxCell>
        <mxCell id="OPNEqIHEBPvRZVrt1SkX-8" value="Simulierte Aktoren&amp;nbsp;" style="rounded=0;whiteSpace=wrap;html=1;" vertex="1" parent="OPNEqIHEBPvRZVrt1SkX-25">
          <mxGeometry x="242.156862745098" y="61.11111111111111" width="152.94117647058823" height="91.66666666666666" as="geometry" />
        </mxCell>
        <mxCell id="OPNEqIHEBPvRZVrt1SkX-13" style="edgeStyle=orthogonalEdgeStyle;rounded=0;orthogonalLoop=1;jettySize=auto;html=1;exitX=0;exitY=0.5;exitDx=0;exitDy=0;entryX=1;entryY=0.5;entryDx=0;entryDy=0;" edge="1" parent="OPNEqIHEBPvRZVrt1SkX-25" source="OPNEqIHEBPvRZVrt1SkX-10" target="OPNEqIHEBPvRZVrt1SkX-11">
          <mxGeometry relative="1" as="geometry" />
        </mxCell>
        <mxCell id="OPNEqIHEBPvRZVrt1SkX-10" value="Datenverarbeitung&amp;nbsp;" style="rounded=0;whiteSpace=wrap;html=1;" vertex="1" parent="OPNEqIHEBPvRZVrt1SkX-25">
          <mxGeometry x="242.156862745098" y="213.88888888888889" width="152.94117647058823" height="91.66666666666666" as="geometry" />
        </mxCell>
        <mxCell id="OPNEqIHEBPvRZVrt1SkX-12" style="edgeStyle=orthogonalEdgeStyle;rounded=0;orthogonalLoop=1;jettySize=auto;html=1;exitX=1;exitY=0.5;exitDx=0;exitDy=0;entryX=0;entryY=0.5;entryDx=0;entryDy=0;" edge="1" parent="OPNEqIHEBPvRZVrt1SkX-25" source="OPNEqIHEBPvRZVrt1SkX-11" target="OPNEqIHEBPvRZVrt1SkX-10">
          <mxGeometry relative="1" as="geometry" />
        </mxCell>
        <mxCell id="OPNEqIHEBPvRZVrt1SkX-17" style="edgeStyle=orthogonalEdgeStyle;rounded=0;orthogonalLoop=1;jettySize=auto;html=1;exitX=0.5;exitY=1;exitDx=0;exitDy=0;entryX=0.25;entryY=0;entryDx=0;entryDy=0;" edge="1" parent="OPNEqIHEBPvRZVrt1SkX-25" source="OPNEqIHEBPvRZVrt1SkX-11" target="OPNEqIHEBPvRZVrt1SkX-16">
          <mxGeometry relative="1" as="geometry" />
        </mxCell>
        <mxCell id="OPNEqIHEBPvRZVrt1SkX-11" value="Steuerungslogik" style="rounded=0;whiteSpace=wrap;html=1;" vertex="1" parent="OPNEqIHEBPvRZVrt1SkX-25">
          <mxGeometry x="38.23529411764706" y="213.88888888888889" width="152.94117647058823" height="91.66666666666666" as="geometry" />
        </mxCell>
        <mxCell id="OPNEqIHEBPvRZVrt1SkX-16" value="Command Line Interface (CLI)" style="rounded=0;whiteSpace=wrap;html=1;" vertex="1" parent="OPNEqIHEBPvRZVrt1SkX-25">
          <mxGeometry y="443.05555555555554" width="433.3333333333333" height="106.94444444444444" as="geometry" />
        </mxCell>
        <mxCell id="OPNEqIHEBPvRZVrt1SkX-20" style="edgeStyle=orthogonalEdgeStyle;rounded=0;orthogonalLoop=1;jettySize=auto;html=1;exitX=0.5;exitY=0.5;exitDx=0;exitDy=0;exitPerimeter=0;entryX=1;entryY=0.5;entryDx=0;entryDy=0;" edge="1" parent="OPNEqIHEBPvRZVrt1SkX-25" source="OPNEqIHEBPvRZVrt1SkX-19" target="OPNEqIHEBPvRZVrt1SkX-16">
          <mxGeometry relative="1" as="geometry" />
        </mxCell>
        <mxCell id="OPNEqIHEBPvRZVrt1SkX-21" value="uses" style="edgeLabel;html=1;align=center;verticalAlign=middle;resizable=0;points=[];" vertex="1" connectable="0" parent="OPNEqIHEBPvRZVrt1SkX-20">
          <mxGeometry x="0.2258" y="-1" relative="1" as="geometry">
            <mxPoint as="offset" />
          </mxGeometry>
        </mxCell>
        <mxCell id="OPNEqIHEBPvRZVrt1SkX-19" value="Actor" style="shape=umlActor;verticalLabelPosition=bottom;verticalAlign=top;html=1;outlineConnect=0;" vertex="1" parent="OPNEqIHEBPvRZVrt1SkX-25">
          <mxGeometry x="611.7647058823529" y="450.6944444444444" width="38.23529411764706" height="91.66666666666666" as="geometry" />
        </mxCell>
      </root>
    </mxGraphModel>
  </diagram>
</mxfile>
